<?xml version="1.0" encoding="iso-8859-1"?>
<!-- Generator: Adobe Illustrator 19.0.0, SVG Export Plug-In . SVG Version: 6.00 Build 0)  -->
<svg version="1.1" id="Layer_1" xmlns="http://www.w3.org/2000/svg" xmlns:xlink="http://www.w3.org/1999/xlink" x="0px" y="0px"
	 viewBox="0 0 503.607 503.607" style="enable-background:new 0 0 503.607 503.607;" xml:space="preserve">
<g transform="translate(1 1)">
	<g>
		<g>
			<path d="M385.098,57.754h-41.967v-8.393c0-9.233-7.554-16.787-16.787-16.787h-25.18V24.18c0-14.269-10.911-25.18-25.18-25.18
				h-50.361c-14.269,0-25.18,11.751-25.18,25.18v8.393h-25.18c-9.233,0-16.787,7.554-16.787,16.787v8.393h-41.967
				c-23.502,0-41.967,18.466-41.967,41.967v360.918c0,23.502,18.466,41.967,41.967,41.967h268.59
				c23.502,0,41.967-18.466,41.967-41.967V99.721C427.066,76.22,408.6,57.754,385.098,57.754z M175.262,49.361h33.574
				c5.036,0,8.393-3.357,8.393-8.393V24.18c0-5.036,3.357-8.393,8.393-8.393h50.361c5.036,0,8.393,4.197,8.393,8.393v16.787
				c0,5.036,3.357,8.393,8.393,8.393h33.574v16.787v41.967H175.262V66.148V49.361z M410.279,460.639
				c0,14.269-10.911,25.18-25.18,25.18h-268.59c-14.269,0-25.18-10.911-25.18-25.18V99.721c0-14.269,10.911-25.18,25.18-25.18
				h41.967v33.574c0,9.233,7.554,16.787,16.787,16.787h151.082c9.233,0,16.787-7.554,16.787-16.787V74.541h41.967
				c14.269,0,25.18,10.911,25.18,25.18V460.639z"/>
			<path d="M158.475,166.869c-9.233,0-16.787,7.554-16.787,16.787s7.554,16.787,16.787,16.787s16.787-7.554,16.787-16.787
				S167.708,166.869,158.475,166.869z"/>
			<path d="M343.131,175.262H200.443c-5.036,0-8.393,3.357-8.393,8.393s3.357,8.393,8.393,8.393h142.689
				c5.036,0,8.393-3.357,8.393-8.393S348.167,175.262,343.131,175.262z"/>
			<path d="M158.475,242.41c-9.233,0-16.787,7.554-16.787,16.787c0,9.233,7.554,16.787,16.787,16.787s16.787-7.554,16.787-16.787
				C175.262,249.964,167.708,242.41,158.475,242.41z"/>
			<path d="M343.131,250.803H200.443c-5.036,0-8.393,3.357-8.393,8.393c0,5.036,3.357,8.393,8.393,8.393h142.689
				c5.036,0,8.393-3.357,8.393-8.393C351.525,254.161,348.167,250.803,343.131,250.803z"/>
			<path d="M158.475,317.951c-9.233,0-16.787,7.554-16.787,16.787c0,9.233,7.554,16.787,16.787,16.787s16.787-7.554,16.787-16.787
				C175.262,325.505,167.708,317.951,158.475,317.951z"/>
			<path d="M343.131,326.344H200.443c-5.036,0-8.393,3.357-8.393,8.393c0,5.036,3.357,8.393,8.393,8.393h142.689
				c5.036,0,8.393-3.357,8.393-8.393C351.525,329.702,348.167,326.344,343.131,326.344z"/>
			<path d="M158.475,393.492c-9.233,0-16.787,7.554-16.787,16.787s7.554,16.787,16.787,16.787s16.787-7.554,16.787-16.787
				S167.708,393.492,158.475,393.492z"/>
			<path d="M343.131,401.885H200.443c-5.036,0-8.393,3.357-8.393,8.393s3.357,8.393,8.393,8.393h142.689
				c5.036,0,8.393-3.357,8.393-8.393S348.167,401.885,343.131,401.885z"/>
		</g>
	</g>
</g>
<g>
</g>
<g>
</g>
<g>
</g>
<g>
</g>
<g>
</g>
<g>
</g>
<g>
</g>
<g>
</g>
<g>
</g>
<g>
</g>
<g>
</g>
<g>
</g>
<g>
</g>
<g>
</g>
<g>
</g>
</svg>
